<svg xmlns="http://www.w3.org/2000/svg" viewBox="0 0 780 520" role="img"><rect width="780" height="520" rx="28" fill="#f5faf8"/><circle cx="666" cy="87" r="55" fill="#d9efea"/><circle cx="100" cy="428" r="78" fill="#fcebdc"/><path d="M65 432h650" stroke="#a8cfc9" stroke-width="5" stroke-linecap="round"/><g transform="translate(388 190)"><circle cx="0" cy="-42" r="24" fill="#f4b992"/><path d="M-34 45v-32q0-31 34-31t34 31v32" fill="#176b68"/><path d="M-13-45q13-18 29-8" fill="none" stroke="#29354a" stroke-width="8" stroke-linecap="round"/></g><g transform="translate(388 325)"><path d="M-70-36q0-28 30-28h84q28 0 28 27v49q0 27-28 27h-34l-23 22v-22h-29q-28 0-28-27z" fill="#fff" stroke="#176b68" stroke-width="6"/><circle cx="-30" cy="-12" r="6" fill="#e08152"/><circle cy="-12" r="6" fill="#e08152"/><circle cx="30" cy="-12" r="6" fill="#e08152"/></g><path d="M315 366q-55 30-132 20m280-20q55 30 132 20" fill="none" stroke="#e08152" stroke-width="8"/><g transform="translate(138 378)"><rect x="-70" y="-91" width="140" height="180" rx="8" fill="#fff" stroke="#176b68" stroke-width="6"/><path d="M-39-50h80M-39-21h80M-39 8h55M-39 48h65" stroke="#a8cfc9" stroke-width="7" stroke-linecap="round"/><path d="M25 32l11 10 20-24" fill="none" stroke="#e08152" stroke-width="8" stroke-linecap="round"/></g><g transform="translate(642 383)"><rect x="-78" y="-71" width="156" height="137" rx="10" fill="#d9efea" stroke="#176b68" stroke-width="6"/><path d="M-90-72L0-119 90-72" fill="none" stroke="#176b68" stroke-width="8" stroke-linecap="round" stroke-linejoin="round"/><path d="M-17-57v45m-23-23h46" stroke="#176b68" stroke-width="8" stroke-linecap="round"/><rect x="-23" y="16" width="46" height="50" rx="4" fill="#fff"/></g></svg>