<svg xmlns="http://www.w3.org/2000/svg" viewBox="0 0 780 520" role="img"><rect width="780" height="520" rx="28" fill="#f5faf8"/><circle cx="666" cy="87" r="55" fill="#d9efea"/><circle cx="100" cy="428" r="78" fill="#fcebdc"/><path d="M65 432h650" stroke="#a8cfc9" stroke-width="5" stroke-linecap="round"/><g transform="translate(199 251)"><rect x="-78" y="-71" width="156" height="137" rx="10" fill="#d9efea" stroke="#176b68" stroke-width="6"/><path d="M-90-72L0-119 90-72" fill="none" stroke="#176b68" stroke-width="8" stroke-linecap="round" stroke-linejoin="round"/><path d="M-17-57v45m-23-23h46" stroke="#176b68" stroke-width="8" stroke-linecap="round"/><rect x="-23" y="16" width="46" height="50" rx="4" fill="#fff"/></g><path d="M300 255L360 255m-16-14l16 14-16 14" fill="none" stroke="#e08152" stroke-width="9" stroke-linecap="round" stroke-linejoin="round"/><g transform="translate(510 265)"><rect x="-70" y="-69" width="140" height="139" rx="12" fill="#fff" stroke="#176b68" stroke-width="6"/><path d="M-70-30h140M-38-86v27M38-86v27" stroke="#176b68" stroke-width="8" stroke-linecap="round"/><path d="M-23 16l18 17 33-39" fill="none" stroke="#e08152" stroke-width="10" stroke-linecap="round" stroke-linejoin="round"/></g><path d="M475 378Q310 438 190 372" fill="none" stroke="#a8cfc9" stroke-width="8" stroke-dasharray="15 15"/></svg>