<svg xmlns="http://www.w3.org/2000/svg" viewBox="0 0 720 360"><rect width="720" height="360" rx="24" fill="#edf4e9"/><g transform="translate(75 160)"><circle cy="-28" r="19" fill="#ba825e"/><path d="M-29 5Q0-16 29 5L35 65H-35Z" fill="#317762"/><path d="M-16 65v40m32-40v40" stroke="#314f43" stroke-width="13"/></g><path d="M125 185h45m-12-12l12 12-12 12" fill="none" stroke="#52755a" stroke-width="6" stroke-linecap="round"/><g transform="translate(230 160)"><circle cy="-28" r="19" fill="#ba825e"/><path d="M-29 5Q0-16 29 5L35 65H-35Z" fill="#317762"/><path d="M-16 65v40m32-40v40" stroke="#314f43" stroke-width="13"/></g><path d="M280 185h45m-12-12l12 12-12 12" fill="none" stroke="#52755a" stroke-width="6" stroke-linecap="round"/><rect x="365" y="95" width="135" height="170" rx="14" fill="#d4e5dc" stroke="#426e57" stroke-width="3"/><path d="M397 130h70m-70 22h70" stroke="#688876" stroke-width="5"/><rect x="410" y="193" width="44" height="72" fill="#fffdfa"/><path d="M525 185h45m-12-12l12 12-12 12" fill="none" stroke="#52755a" stroke-width="6" stroke-linecap="round"/><g transform="translate(595 100)"><rect width="100" height="145" rx="8" fill="#fffdfa" stroke="#426e57" stroke-width="3"/><rect x="14" y="18" width="72" height="15" rx="3" fill="#ead88f"/><path d="M14 52h72m-72 22h60m-60 22h72" stroke="#819f86" stroke-width="4"/></g><path d="M646 285Q360 350 75 285" fill="none" stroke="#52755a" stroke-width="4" stroke-dasharray="9 6"/></svg>