<svg xmlns="http://www.w3.org/2000/svg" viewBox="0 0 720 360"><rect width="720" height="360" rx="24" fill="#edf4e9"/><g transform="translate(35 100)"><rect width="140" height="180" rx="8" fill="#fffdfa" stroke="#426e57" stroke-width="3"/><rect x="14" y="18" width="112" height="15" rx="3" fill="#ead88f"/><path d="M14 52h112m-112 22h100m-100 22h112" stroke="#819f86" stroke-width="4"/></g><g transform="translate(205 100)"><rect width="140" height="180" rx="8" fill="#fffdfa" stroke="#426e57" stroke-width="3"/><rect x="14" y="18" width="112" height="15" rx="3" fill="#ead88f"/><path d="M14 52h112m-112 22h100m-100 22h112" stroke="#819f86" stroke-width="4"/></g><g transform="translate(375 100)"><rect width="140" height="180" rx="8" fill="#fffdfa" stroke="#426e57" stroke-width="3"/><rect x="14" y="18" width="112" height="15" rx="3" fill="#ead88f"/><path d="M14 52h112m-112 22h100m-100 22h112" stroke="#819f86" stroke-width="4"/></g><g transform="translate(545 100)"><rect width="140" height="180" rx="8" fill="#fffdfa" stroke="#426e57" stroke-width="3"/><rect x="14" y="18" width="112" height="15" rx="3" fill="#ead88f"/><path d="M14 52h112m-112 22h100m-100 22h112" stroke="#819f86" stroke-width="4"/></g><path d="M50 240h100m70-15h100m70 30h100m70-45h100" stroke="#d5ae49" stroke-width="9"/></svg>